<svg width="16" height="16" viewBox="0 0 16 16" fill="none" xmlns="http://www.w3.org/2000/svg">
<path d="M7.99019 10.2722L10.1511 12.7291C10.9517 13.6393 11.3521 14.0944 11.7711 13.9836C12.1901 13.8728 12.3338 13.2739 12.6211 12.0759L14.2152 5.4306C14.6578 3.58555 14.8791 2.66303 14.3871 2.208C13.8953 1.75298 13.0426 2.0915 11.3373 2.76855L3.42576 5.90966C2.06187 6.45116 1.37993 6.72193 1.33663 7.1872C1.3322 7.2348 1.33213 7.28273 1.33641 7.33033C1.37828 7.7958 2.05939 8.06887 3.42162 8.61487C4.03884 8.86227 4.34745 8.986 4.56872 9.22293C4.5936 9.24953 4.61752 9.27713 4.64044 9.3056C4.84431 9.55893 4.93131 9.8914 5.10531 10.5563L5.43094 11.8007C5.60025 12.4477 5.68491 12.7712 5.90664 12.8153C6.12837 12.8594 6.32142 12.5911 6.70752 12.0546L7.99019 10.2722ZM7.99019 10.2722L7.77832 10.0514C7.53719 9.80006 7.41665 9.67447 7.41665 9.51833C7.41665 9.3622 7.53719 9.23653 7.77832 8.9852L10.1603 6.50273" stroke="white" stroke-linecap="round" stroke-linejoin="round"/>
</svg>
