<svg width="16" height="16" viewBox="0 0 16 16" fill="none" xmlns="http://www.w3.org/2000/svg">
<path d="M13.8137 9.33325V6.66659C13.8137 4.15243 13.8137 2.89535 13.0327 2.1143C12.2517 1.33325 10.9946 1.33325 8.4804 1.33325H7.8138C5.29969 1.33325 4.04262 1.33325 3.26158 2.11429C2.48052 2.89533 2.48052 4.1524 2.4805 6.66654L2.48047 9.33319C2.48045 11.8474 2.48044 13.1045 3.26149 13.8855C4.04254 14.6666 5.29962 14.6666 7.8138 14.6666H8.4804C10.9946 14.6666 12.2517 14.6666 13.0327 13.8855C13.8137 13.1045 13.8137 11.8474 13.8137 9.33325Z" stroke="white" stroke-width="1.2" stroke-linecap="round" stroke-linejoin="round"/>
<path d="M5.48047 4.66675H10.8138M5.48047 8.00008H10.8138M5.48047 11.3334H8.14714" stroke="white" stroke-width="1.2" stroke-linecap="round" stroke-linejoin="round"/>
</svg>
