<svg width="18" height="18" viewBox="0 0 18 18" fill="none" xmlns="http://www.w3.org/2000/svg">
<path d="M3.22548 12.8934L2.37031 7.69432C2.24101 6.90827 2.17636 6.51523 2.38339 6.25762C2.59041 6 2.97091 6 3.7319 6H14.2681C15.0291 6 15.4096 6 15.6166 6.25762C15.8236 6.51523 15.759 6.90827 15.6297 7.69432L14.7745 12.8934C14.491 14.6166 14.3494 15.4782 13.7708 15.9891C13.1921 16.5 12.358 16.5 10.6898 16.5H7.31024C5.64203 16.5 4.80791 16.5 4.22928 15.9891C3.65064 15.4782 3.50892 14.6166 3.22548 12.8934Z" stroke="white" stroke-width="1.2"/>
<path d="M7.82812 13.25V9.24997M9 9.24997V8.25M9 14.25V13.25M7.82812 11.25H10.1719M10.1719 11.25C10.5602 11.25 10.875 11.5858 10.875 12V12.5C10.875 12.9143 10.5602 13.25 10.1719 13.25H7.125M10.1719 11.25C10.5602 11.25 10.875 10.9142 10.875 10.5V9.99997C10.875 9.58575 10.5602 9.24997 10.1719 9.24997H7.125" stroke="white" stroke-width="1.2" stroke-linecap="round" stroke-linejoin="round"/>
<path d="M12.75 6C12.75 3.51472 11.625 1.5 9 1.5C6.375 1.5 5.25 3.51472 5.25 6" stroke="white" stroke-width="1.2"/>
</svg>
