<svg width="16" height="16" viewBox="0 0 16 16" fill="none" xmlns="http://www.w3.org/2000/svg">
<path d="M9.33333 2H3.33333C2.59695 2 2 2.59695 2 3.33333C2 4.06971 2.59695 4.66667 3.33333 4.66667H12C12 4.04669 12 3.73669 11.9319 3.48236C11.7469 2.79218 11.2078 2.25308 10.5177 2.06815C10.2633 2 9.95333 2 9.33333 2Z" stroke="#10B981" stroke-width="1.2" stroke-linecap="round" stroke-linejoin="round"/>
<path d="M2 3.33325V9.99992C2 11.8855 2 12.8283 2.58579 13.4141C3.17157 13.9999 4.11438 13.9999 6 13.9999H10C11.8856 13.9999 12.8284 13.9999 13.4142 13.4141C14 12.8283 14 11.8855 14 9.99992V8.66659C14 6.78099 14 5.83816 13.4142 5.25237C12.8284 4.66659 11.8856 4.66659 10 4.66659H4.66667" stroke="#10B981" stroke-width="1.2" stroke-linecap="round" stroke-linejoin="round"/>
<path d="M13.9999 8H12.6666C12.3566 8 12.2016 8 12.0745 8.03407C11.7293 8.12653 11.4598 8.39607 11.3673 8.7412C11.3333 8.86833 11.3333 9.02333 11.3333 9.33333C11.3333 9.64333 11.3333 9.79833 11.3673 9.92547C11.4598 10.2706 11.7293 10.5401 12.0745 10.6326C12.2016 10.6667 12.3566 10.6667 12.6666 10.6667H13.9999" stroke="#10B981" stroke-width="1.2" stroke-linecap="round" stroke-linejoin="round"/>
</svg>
