<svg width="13" height="13" viewBox="0 0 13 13" fill="none" xmlns="http://www.w3.org/2000/svg">
<path d="M13 6.50002C13 10.0899 10.0899 13 6.50002 13C2.91016 13 0 10.0899 0 6.50002C0 2.91016 2.91016 0 6.50002 0C10.0899 0 13 2.91016 13 6.50002ZM1.39714 6.50002C1.39714 9.31826 3.68178 11.6029 6.50002 11.6029C9.31826 11.6029 11.6029 9.31826 11.6029 6.50002C11.6029 3.68178 9.31826 1.39714 6.50002 1.39714C3.68178 1.39714 1.39714 3.68178 1.39714 6.50002Z" fill="#10B981"/>
<path d="M10.967 6.50011C10.967 8.9671 8.9671 10.967 6.50011 10.967C4.03311 10.967 2.03322 8.9671 2.03322 6.50011C2.03322 4.03311 4.03311 2.03322 6.50011 2.03322C8.9671 2.03322 10.967 4.03311 10.967 6.50011ZM3.34376 6.50011C3.34376 8.24331 4.7569 9.65646 6.50011 9.65646C8.24331 9.65646 9.65646 8.24331 9.65646 6.50011C9.65646 4.7569 8.24331 3.34376 6.50011 3.34376C4.7569 3.34376 3.34376 4.7569 3.34376 6.50011Z" fill="#10B981"/>
<path d="M8.72575 6.49989C8.72575 7.72913 7.72925 8.72562 6.50002 8.72562C5.27079 8.72562 4.27429 7.72913 4.27429 6.49989C4.27429 5.27066 5.27079 4.27417 6.50002 4.27417C7.72925 4.27417 8.72575 5.27066 8.72575 6.49989ZM5.20245 6.49989C5.20245 7.21652 5.78339 7.79746 6.50002 7.79746C7.21665 7.79746 7.79759 7.21652 7.79759 6.49989C7.79759 5.78326 7.21665 5.20232 6.50002 5.20232C5.78339 5.20232 5.20245 5.78326 5.20245 6.49989Z" fill="#10B981"/>
</svg>
