<svg width="16" height="16" viewBox="0 0 16 16" fill="none" xmlns="http://www.w3.org/2000/svg">
<path d="M12.8138 6.99992V6.66655C12.8138 4.15243 12.8138 2.89533 12.0328 2.11428C11.2517 1.33325 9.99464 1.33325 7.48051 1.33325C4.96644 1.33325 3.70935 1.33329 2.9283 2.11431C2.14728 2.89535 2.14726 4.1524 2.14724 6.66651L2.14722 9.66659C2.1472 11.8582 2.14719 12.9541 2.75247 13.6916C2.8633 13.8267 2.98712 13.9505 3.12217 14.0613C3.85973 14.6666 4.95554 14.6666 7.14718 14.6666" stroke="white" stroke-width="1.2" stroke-linecap="round" stroke-linejoin="round"/>
<path d="M4.81396 4.66675H10.1473M4.81396 7.33341H7.48063" stroke="white" stroke-width="1.2" stroke-linecap="round" stroke-linejoin="round"/>
<path d="M12.1472 12.3334L11.1472 11.9667V10.3334M8.14722 11.6667C8.14722 13.3236 9.49035 14.6667 11.1472 14.6667C12.8041 14.6667 14.1472 13.3236 14.1472 11.6667C14.1472 10.0099 12.8041 8.66675 11.1472 8.66675C9.49035 8.66675 8.14722 10.0099 8.14722 11.6667Z" stroke="white" stroke-width="1.2" stroke-linecap="round" stroke-linejoin="round"/>
</svg>
