<svg width="18" height="18" viewBox="0 0 18 18" fill="none" xmlns="http://www.w3.org/2000/svg">
<path d="M10.5 2.25H3.75C2.92157 2.25 2.25 2.92157 2.25 3.75C2.25 4.57843 2.92157 5.25 3.75 5.25H13.5C13.5 4.55252 13.5 4.20378 13.4234 3.91765C13.2153 3.1412 12.6088 2.53472 11.8324 2.32667C11.5462 2.25 11.1975 2.25 10.5 2.25Z" stroke="white" stroke-width="1.35" stroke-linecap="round" stroke-linejoin="round"/>
<path d="M2.25 3.75V11.25C2.25 13.3713 2.25 14.4319 2.90901 15.091C3.56802 15.75 4.62868 15.75 6.75 15.75H11.25C13.3713 15.75 14.4319 15.75 15.091 15.091C15.75 14.4319 15.75 13.3713 15.75 11.25V9.75C15.75 7.6287 15.75 6.56802 15.091 5.90901C14.4319 5.25 13.3713 5.25 11.25 5.25H5.25" stroke="white" stroke-width="1.35" stroke-linecap="round" stroke-linejoin="round"/>
<path d="M15.75 9H14.25C13.9012 9 13.7269 9 13.5838 9.03832C13.1956 9.14235 12.8923 9.44558 12.7883 9.83385C12.75 9.97688 12.75 10.1512 12.75 10.5C12.75 10.8488 12.75 11.0231 12.7883 11.1661C12.8923 11.5544 13.1956 11.8577 13.5838 11.9617C13.7269 12 13.9012 12 14.25 12H15.75" stroke="white" stroke-width="1.35" stroke-linecap="round" stroke-linejoin="round"/>
</svg>
