<svg width="16" height="16" viewBox="0 0 16 16" fill="none" xmlns="http://www.w3.org/2000/svg">
<g clip-path="url(#clip0_125_670)">
<path d="M14.4847 12.0005L9.15133 2.66714C9.03504 2.46194 8.8664 2.29127 8.66262 2.17252C8.45883 2.05378 8.22719 1.99121 7.99133 1.99121C7.75547 1.99121 7.52384 2.05378 7.32005 2.17252C7.11626 2.29127 6.94762 2.46194 6.83133 2.66714L1.498 12.0005C1.38045 12.204 1.31882 12.4351 1.31934 12.6701C1.31986 12.9052 1.38252 13.136 1.50096 13.339C1.61941 13.5421 1.78943 13.7102 1.9938 13.8264C2.19816 13.9425 2.4296 14.0026 2.66467 14.0005H13.3313C13.5653 14.0002 13.795 13.9385 13.9975 13.8213C14.2 13.7042 14.3681 13.5359 14.485 13.3332C14.6019 13.1306 14.6634 12.9007 14.6633 12.6668C14.6632 12.4329 14.6016 12.2031 14.4847 12.0005Z" stroke="#E7A23A" stroke-width="1.5" stroke-linecap="round" stroke-linejoin="round"/>
<path d="M7.99976 6.00024V8.66691" stroke="#E7A23A" stroke-width="1.5" stroke-linecap="round" stroke-linejoin="round"/>
<path d="M7.99976 11.3333H8.00565" stroke="#E7A23A" stroke-width="1.5" stroke-linecap="round" stroke-linejoin="round"/>
</g>
<defs>
<clipPath id="clip0_125_670">
<rect width="16" height="16" fill="white"/>
</clipPath>
</defs>
</svg>
