<svg width="19" height="19" viewBox="0 0 19 19" fill="none" xmlns="http://www.w3.org/2000/svg">
<path d="M15.632 10.2916C16.2582 9.39399 16.6253 8.30229 16.6253 7.12492C16.6253 4.06434 14.1442 1.58325 11.0837 1.58325C8.02308 1.58325 5.54199 4.06434 5.54199 7.12492C5.54199 7.97485 5.73333 8.78006 6.07528 9.49992" stroke="white" stroke-width="1.2" stroke-linecap="round" stroke-linejoin="round"/>
<path d="M9.84668 9.23606V5.01381M11.0837 5.01381V3.95825M11.0837 10.2916V9.23606M9.84668 7.12492H12.3206M12.3206 7.12492C12.7306 7.12492 13.0628 7.47936 13.0628 7.91659V8.44439C13.0628 8.88163 12.7306 9.23606 12.3206 9.23606H9.10449M12.3206 7.12492C12.7306 7.12492 13.0628 6.77047 13.0628 6.33325V5.80547C13.0628 5.36825 12.7306 5.01381 12.3206 5.01381H9.10449" stroke="white" stroke-width="1.2" stroke-linecap="round" stroke-linejoin="round"/>
<path d="M2.375 11.0833H4.2709C4.50377 11.0833 4.73344 11.1357 4.94172 11.2365L6.55829 12.0187C6.76657 12.1195 6.99624 12.1719 7.2291 12.1719H8.0545C8.85281 12.1719 9.5 12.7982 9.5 13.5707C9.5 13.6019 9.47862 13.6293 9.44759 13.6379L7.43602 14.1941C7.07518 14.2939 6.68879 14.2591 6.35312 14.0967L4.625 13.2606M9.5 13.0624L13.136 11.9453C13.7805 11.7445 14.4773 11.9826 14.881 12.5417C15.173 12.946 15.0541 13.5249 14.6288 13.7703L8.67896 17.2032C8.30055 17.4216 7.85408 17.4749 7.43783 17.3514L2.375 15.849" stroke="white" stroke-width="1.2" stroke-linecap="round" stroke-linejoin="round"/>
</svg>
