<svg width="16" height="16" viewBox="0 0 16 16" fill="none" xmlns="http://www.w3.org/2000/svg">
<path d="M12.8141 6.99992V6.66655C12.8141 4.15243 12.814 2.89533 12.033 2.11428C11.252 1.33325 9.99489 1.33325 7.48075 1.33325C4.96668 1.33325 3.70959 1.33329 2.92855 2.11431C2.14752 2.89535 2.14751 4.1524 2.14749 6.66651L2.14746 9.66659C2.14744 11.8582 2.14743 12.9541 2.75271 13.6916C2.86354 13.8267 2.98737 13.9505 3.12241 14.0613C3.85997 14.6666 4.95579 14.6666 7.14742 14.6666" stroke="#10B981" stroke-width="1.2" stroke-linecap="round" stroke-linejoin="round"/>
<path d="M4.81396 4.66675H10.1473M4.81396 7.33341H7.48063" stroke="#10B981" stroke-width="1.2" stroke-linecap="round" stroke-linejoin="round"/>
<path d="M12.1475 12.3334L11.1475 11.9667V10.3334M8.14746 11.6667C8.14746 13.3236 9.49059 14.6667 11.1475 14.6667C12.8043 14.6667 14.1475 13.3236 14.1475 11.6667C14.1475 10.0099 12.8043 8.66675 11.1475 8.66675C9.49059 8.66675 8.14746 10.0099 8.14746 11.6667Z" stroke="#10B981" stroke-width="1.2" stroke-linecap="round" stroke-linejoin="round"/>
</svg>
